<svg viewBox="0 0 300 275" fill="none" xmlns="http://www.w3.org/2000/svg">
<path fill-rule="evenodd" clip-rule="evenodd" d="M21.31 197.6V89.36C21.3094 87.2719 22.0581 85.2529 23.42 83.67L29.59 76.5V207L21.31 197.6Z" fill="#8A6BE8" stroke="#231F20" stroke-width="3" stroke-linecap="round" stroke-linejoin="round"/>
<path d="M251.71 102.87C247.95 108.8 233.71 106.5 219.81 97.7198C205.91 88.9398 197.81 76.9998 201.53 71.0698C202.85 68.9998 205.44 67.9398 208.85 67.7998C215.21 67.5198 224.42 70.4998 233.44 76.2198C242.46 81.9398 249.09 88.9998 251.56 94.8598C252.89 97.9998 253 100.8 251.71 102.87Z" fill="#8A6BE8" stroke="#231F20" stroke-width="3" stroke-linecap="round" stroke-linejoin="round"/>
<path d="M145.39 27.7899C147.649 27.7899 149.48 25.9587 149.48 23.6999C149.48 21.441 147.649 19.6099 145.39 19.6099C143.131 19.6099 141.3 21.441 141.3 23.6999C141.3 25.9587 143.131 27.7899 145.39 27.7899Z" fill="white" stroke="#231F20" stroke-width="3" stroke-linecap="round" stroke-linejoin="round"/>
<path d="M269.35 160.87C271.609 160.87 273.44 159.039 273.44 156.78C273.44 154.521 271.609 152.69 269.35 152.69C267.091 152.69 265.26 154.521 265.26 156.78C265.26 159.039 267.091 160.87 269.35 160.87Z" fill="white" stroke="#231F20" stroke-width="3" stroke-linecap="round" stroke-linejoin="round"/>
<path d="M57.95 49.38C62.4677 49.38 66.13 45.7177 66.13 41.2C66.13 36.6823 62.4677 33.02 57.95 33.02C53.4323 33.02 49.77 36.6823 49.77 41.2C49.77 45.7177 53.4323 49.38 57.95 49.38Z" fill="white" stroke="#231F20" stroke-width="3" stroke-linecap="round" stroke-linejoin="round"/>
<path fill-rule="evenodd" clip-rule="evenodd" d="M245.69 206.4H27V83C27 80.5414 27.9767 78.1836 29.7151 76.4451C31.4536 74.7066 33.8114 73.73 36.27 73.73H236.42C238.879 73.73 241.236 74.7066 242.975 76.4451C244.713 78.1836 245.69 80.5414 245.69 83V206.4Z" fill="white" stroke="#231F20" stroke-width="3" stroke-linecap="round" stroke-linejoin="round"/>
<path fill-rule="evenodd" clip-rule="evenodd" d="M296.73 237.56L49.08 237.48L26.97 206.48H245.76L296.73 237.56Z" fill="white" stroke="#231F20" stroke-width="3" stroke-linecap="round" stroke-linejoin="round"/>
<path fill-rule="evenodd" clip-rule="evenodd" d="M253.37 227.73L71.77 227.93L60.27 213.87L231.15 214.27L253.37 227.73Z" fill="#E3E1F9" stroke="#231F20" stroke-width="3" stroke-linecap="round" stroke-linejoin="round"/>
<path d="M35.92 73.6499H80.31V206.32H27.21V82.3199C27.2206 80.0168 28.1429 77.8116 29.7752 76.1868C31.4075 74.562 33.6169 73.6499 35.92 73.6499Z" fill="#E3E1F9" stroke="#231F20" stroke-width="3" stroke-linecap="round" stroke-linejoin="round"/>
<path d="M209.92 88.8599H112.27V144.32H209.92V88.8599Z" fill="#E3E1F9" stroke="#231F20" stroke-width="3" stroke-linecap="round" stroke-linejoin="round"/>
<path d="M152.58 110.42V123.15C152.58 123.544 152.68 123.931 152.871 124.275C153.062 124.619 153.338 124.909 153.673 125.116C154.008 125.323 154.39 125.442 154.783 125.46C155.176 125.478 155.568 125.396 155.92 125.22L169.57 118.46C169.965 118.264 170.295 117.959 170.522 117.581C170.75 117.204 170.865 116.769 170.855 116.328C170.844 115.888 170.708 115.459 170.463 115.093C170.218 114.727 169.873 114.438 169.47 114.26L155.82 108.26C155.465 108.104 155.076 108.04 154.689 108.073C154.303 108.107 153.931 108.237 153.608 108.452C153.285 108.668 153.022 108.961 152.842 109.305C152.662 109.649 152.572 110.032 152.58 110.42Z" fill="#8A6BE8" stroke="#231F20" stroke-width="3" stroke-linecap="round" stroke-linejoin="round"/>
<path d="M36.8 89.96H65.89" stroke="#231F20" stroke-width="3" stroke-linecap="round" stroke-linejoin="round"/>
<path d="M36.8 101.91H53.15" stroke="#231F20" stroke-width="3" stroke-linecap="round" stroke-linejoin="round"/>
<path d="M36.8 113.86H67.05" stroke="#231F20" stroke-width="3" stroke-linecap="round" stroke-linejoin="round"/>
<path d="M36.8 125.81H71.68" stroke="#231F20" stroke-width="3" stroke-linecap="round" stroke-linejoin="round"/>
<path d="M36.8 137.77H61.26" stroke="#231F20" stroke-width="3" stroke-linecap="round" stroke-linejoin="round"/>
<path d="M36.8 197.34H61.26" stroke="#231F20" stroke-width="3" stroke-linecap="round" stroke-linejoin="round"/>
<path d="M36.8 149.72H67.05" stroke="#231F20" stroke-width="3" stroke-linecap="round" stroke-linejoin="round"/>
<path d="M36.8 161.67H62.42" stroke="#231F20" stroke-width="3" stroke-linecap="round" stroke-linejoin="round"/>
<path d="M36.8 173.62H67.05" stroke="#231F20" stroke-width="3" stroke-linecap="round" stroke-linejoin="round"/>
<path d="M36.8 185.58H54.31" stroke="#231F20" stroke-width="3" stroke-linecap="round" stroke-linejoin="round"/>
<path d="M123.13 153.25H112.39V163.99H123.13V153.25Z" fill="#E3E1F9" stroke="#231F20" stroke-width="3" stroke-linecap="round" stroke-linejoin="round"/>
<path d="M209.9 153.25H199.16V163.99H209.9V153.25Z" fill="#E3E1F9" stroke="#231F20" stroke-width="3" stroke-linecap="round" stroke-linejoin="round"/>
<path d="M129.07 158.62H141.93" stroke="#231F20" stroke-width="3" stroke-linecap="round" stroke-linejoin="round"/>
<path d="M179.38 158.62H192.24" stroke="#231F20" stroke-width="3" stroke-linecap="round" stroke-linejoin="round"/>
<path d="M111.82 176.5H200.29" stroke="#231F20" stroke-width="3" stroke-linecap="round" stroke-linejoin="round"/>
<path d="M111.82 184.41H188.71" stroke="#231F20" stroke-width="3" stroke-linecap="round" stroke-linejoin="round"/>
<path d="M111.82 192.33H139.35" stroke="#231F20" stroke-width="3" stroke-linecap="round" stroke-linejoin="round"/>
<path fill-rule="evenodd" clip-rule="evenodd" d="M50.17 254.81L26.88 223.94C24.0331 220.379 22.3627 216.022 22.1 211.47L21.31 197.6L49.08 238L50.17 254.81Z" fill="#8A6BE8" stroke="#231F20" stroke-width="3" stroke-linecap="round" stroke-linejoin="round"/>
<path fill-rule="evenodd" clip-rule="evenodd" d="M296.73 238H194L188.56 243.45H151.22L145.78 238H49.08L48.72 250.83C48.9892 253.083 50.0754 255.159 51.7728 256.665C53.4702 258.17 55.661 259.001 57.93 259L286.13 258.67C288.408 258.67 290.607 257.83 292.305 256.312C294.004 254.794 295.084 252.704 295.34 250.44L296.73 238Z" fill="white" stroke="#231F20" stroke-width="3" stroke-linecap="round" stroke-linejoin="round"/>
<path fill-rule="evenodd" clip-rule="evenodd" d="M31.2 148.73C31.3747 149.222 31.6508 149.673 32.0106 150.051C32.3703 150.43 32.8056 150.729 33.2883 150.929C33.771 151.129 34.2903 151.225 34.8125 151.212C35.3348 151.198 35.8484 151.075 36.32 150.85C37.0196 150.502 37.8107 150.383 38.5817 150.509C39.3527 150.636 40.0646 151.001 40.617 151.553C41.1694 152.105 41.5344 152.817 41.6605 153.588C41.7867 154.359 41.6675 155.15 41.32 155.85C41.0911 156.321 40.9638 156.836 40.9463 157.359C40.9289 157.883 41.0217 158.405 41.2188 158.89C41.4158 159.376 41.7127 159.814 42.0902 160.178C42.4677 160.541 42.9173 160.821 43.41 161C44.1259 161.264 44.7437 161.741 45.1801 162.367C45.6165 162.992 45.8504 163.737 45.8504 164.5C45.8504 165.263 45.6165 166.008 45.1801 166.633C44.7437 167.259 44.1259 167.736 43.41 168C42.9176 168.175 42.4674 168.451 42.0886 168.811C41.7098 169.17 41.4108 169.606 41.2109 170.088C41.011 170.571 40.9148 171.09 40.9284 171.613C40.942 172.135 41.0652 172.648 41.29 173.12C41.6375 173.82 41.7567 174.611 41.6305 175.382C41.5044 176.153 41.1394 176.865 40.587 177.417C40.0346 177.969 39.3227 178.334 38.5517 178.461C37.7807 178.587 36.9896 178.468 36.29 178.12C35.8177 177.895 35.3035 177.773 34.7808 177.76C34.258 177.747 33.7384 177.844 33.2556 178.045C32.7728 178.246 32.3376 178.546 31.9783 178.926C31.619 179.306 31.3436 179.757 31.17 180.25C30.902 180.962 30.4234 181.575 29.7981 182.007C29.1728 182.44 28.4304 182.672 27.67 182.672C26.9096 182.672 26.1672 182.44 25.5419 182.007C24.9166 181.575 24.438 180.962 24.17 180.25C24.0026 179.746 23.7295 179.283 23.3689 178.893C23.0084 178.503 22.5686 178.194 22.0791 177.988C21.5896 177.782 21.0617 177.682 20.5307 177.696C19.9997 177.71 19.4778 177.838 19 178.07C18.3003 178.418 17.5092 178.537 16.7383 178.411C15.9673 178.284 15.2554 177.919 14.703 177.367C14.1506 176.815 13.7855 176.103 13.6594 175.332C13.5333 174.561 13.6524 173.77 14 173.07C14.2192 172.608 14.3413 172.107 14.3586 171.596C14.3759 171.085 14.2881 170.576 14.1005 170.101C13.913 169.625 13.6298 169.194 13.2684 168.832C12.9071 168.471 12.4753 168.188 12 168C11.2841 167.736 10.6662 167.259 10.2299 166.633C9.79348 166.008 9.55951 165.263 9.55951 164.5C9.55951 163.737 9.79348 162.992 10.2299 162.367C10.6662 161.741 11.2841 161.264 12 161C12.4914 160.824 12.9405 160.547 13.3185 160.187C13.6964 159.827 13.9948 159.392 14.1945 158.91C14.3942 158.428 14.4907 157.909 14.4779 157.387C14.465 156.865 14.3431 156.352 14.12 155.88C13.7724 155.18 13.6533 154.389 13.7794 153.618C13.9056 152.847 14.2706 152.135 14.823 151.583C15.3754 151.031 16.0873 150.666 16.8583 150.539C17.6292 150.413 18.4203 150.532 19.12 150.88C19.5916 151.105 20.1051 151.228 20.6274 151.242C21.1496 151.255 21.6689 151.159 22.1516 150.959C22.6343 150.759 23.0696 150.46 23.4294 150.081C23.7891 149.703 24.0653 149.252 24.24 148.76C24.512 148.06 24.9885 147.458 25.6074 147.033C26.2262 146.608 26.9588 146.378 27.7098 146.375C28.4607 146.372 29.1952 146.595 29.8177 147.015C30.4402 147.435 30.9219 148.032 31.2 148.73Z" fill="white" stroke="#231F20" stroke-width="3" stroke-linecap="round" stroke-linejoin="round"/>
<path fill-rule="evenodd" clip-rule="evenodd" d="M20.27 166.04L26.94 171.07L34.8 157.32" fill="white"/>
<path d="M20.27 166.04L26.94 171.07L34.8 157.32" stroke="#231F20" stroke-width="3" stroke-linecap="round" stroke-linejoin="round"/>
<path d="M281.16 84.3201L232.74 75.7701L204.93 36.0001C204.632 35.3994 204.496 34.7315 204.535 34.0622C204.574 33.393 204.787 32.7454 205.152 32.1833C205.518 31.6212 206.023 31.1639 206.619 30.8565C207.215 30.5491 207.88 30.4021 208.55 30.4301L254.55 32.4301C256.348 32.5073 258.094 33.0549 259.613 34.0183C261.133 34.9818 262.373 36.3272 263.21 37.9201L284.64 78.6601C284.953 79.2533 285.106 79.9177 285.084 80.588C285.062 81.2582 284.865 81.9111 284.514 82.4824C284.163 83.0537 283.669 83.5236 283.081 83.8458C282.492 84.1681 281.831 84.3315 281.16 84.3201Z" fill="#8A6BE8" stroke="#231F20" stroke-width="3" stroke-linecap="round" stroke-linejoin="round"/>
<path d="M284.58 83.1802L284.33 104.19" stroke="#231F20" stroke-width="3" stroke-linecap="round" stroke-linejoin="round"/>
<path d="M291.264 100.935C291.358 97.1415 288.359 93.9904 284.566 93.8964C280.773 93.8024 277.622 96.801 277.528 100.594C277.434 104.387 280.433 107.538 284.226 107.632C288.019 107.726 291.17 104.728 291.264 100.935Z" fill="#8A6BE8" stroke="#231F20" stroke-width="3" stroke-linecap="round" stroke-linejoin="round"/>
<path d="M251.54 103.14L268.54 76.3098C272.3 70.3698 264.12 58.4398 250.27 49.6598C236.42 40.8798 222.13 38.5798 218.37 44.5098L201.37 71.3498" stroke="#231F20" stroke-width="3" stroke-linecap="round" stroke-linejoin="round"/>
<path d="M201.54 71.0698C201.54 71.0698 206.35 63.9798 222.54 70.6198L239.34 44.0598C229.57 40.2398 221.14 40.1498 218.34 44.5098L201.54 71.0698Z" fill="#E3E1F9" stroke="#231F20" stroke-width="3" stroke-linecap="round" stroke-linejoin="round"/>
<path d="M251.82 102.93C251.82 102.93 256.18 95.5602 243.26 83.7602L260.1 57.2202C267.73 64.4302 271.41 72.0202 268.65 76.3802L251.82 102.93Z" fill="#E3E1F9" stroke="#231F20" stroke-width="3" stroke-linecap="round" stroke-linejoin="round"/>
<path d="M239.33 44.0601L222.53 70.6201C226.048 72.0984 229.46 73.8192 232.74 75.7701C236.378 78.259 239.889 80.929 243.26 83.7701L259.9 57.5401C256.976 54.5821 253.748 51.9408 250.27 49.6601C246.753 47.5499 243.098 45.679 239.33 44.0601Z" fill="white" stroke="#231F20" stroke-width="3" stroke-linecap="round" stroke-linejoin="round"/>
</svg>
