<svg id="Layer_1" data-name="Layer 1" xmlns="http://www.w3.org/2000/svg" viewBox="0 0 300 275"><defs><style>.cls-1,.cls-8{fill:#8a6be8;}.cls-1,.cls-2,.cls-3,.cls-7,.cls-8{stroke:#231f20;stroke-linecap:round;stroke-linejoin:round;stroke-width:3px;}.cls-1,.cls-7{fill-rule:evenodd;}.cls-2,.cls-7{fill:#fff;}.cls-3{fill:#e3e1f9;}.cls-4{fill:#d87d7d;}.cls-5{fill:#f2be5e;}.cls-6{fill:#70ccba;}</style></defs><title>digital-download-large</title><path class="cls-1" d="M38.31,246.83,28,241c-2.43-1.13-4.1-4.53-4.1-8.38V69.41a10,10,0,0,1,4.64-8.65c2.34-1.49,9.5-5.43,9.5-5.43Z"/><rect class="cls-2" x="33" y="54.43" width="242.97" height="193.14" rx="9.18"/><path class="cls-3" d="M42.22,54.43H266.83A9.18,9.18,0,0,1,276,63.61V76.5a0,0,0,0,1,0,0H33a0,0,0,0,1,0,0V63.61A9.18,9.18,0,0,1,42.22,54.43Z"/><circle class="cls-4" cx="47.05" cy="65.93" r="2.79"/><circle class="cls-5" cx="56.37" cy="65.93" r="2.79"/><circle class="cls-6" cx="65.68" cy="65.93" r="2.79"/><path class="cls-1" d="M68.66,138.82l0,.37,1.43,9.58,3.63,24.29a9.59,9.59,0,0,0,3.5,18.85,46.71,46.71,0,0,0,11.88-3.79l-9.33-42.86,31.28-11.33,2.51,16.84a9.6,9.6,0,0,0,3.14,18.93A42.35,42.35,0,0,0,129,165.56l-4.11-6.42c0-.12-5.49-38.69-5.49-38.69l-43,13.08Z"/><path class="cls-7" d="M76.38,133.53l.05.39L77.94,144l3.82,25.59A10.1,10.1,0,1,0,94,178l-5.82-37.65,32.94-11.94,2.65,17.74a10.11,10.11,0,1,0,11.86,8.9h0v-.08c0-.12,0-.25,0-.37s0-.13,0-.19l-5.71-40.2Z"/><path class="cls-8" d="M189.1,64.48a19.21,19.21,0,0,0-9.68-16.69,31.42,31.42,0,0,0-31.08-27c-15.48,0-26,12.86-28.58,27.65-2.65-1.13-8-3.29-11.07-3.09a19.22,19.22,0,0,0-5.47,37.15c1.83.68,12.06,3.14,12.06,3.14l56-1.9v-.07A19.18,19.18,0,0,0,189.1,64.48Z"/><circle class="cls-2" cx="152.95" cy="83.82" r="11"/><circle class="cls-2" cx="158.81" cy="136.46" r="5.37"/><circle class="cls-2" cx="145.4" cy="173.91" r="2.69"/><circle class="cls-2" cx="196.72" cy="189.71" r="2.69"/><circle class="cls-2" cx="115.81" cy="99.93" r="2.69"/><path class="cls-2" d="M217.59,64.32a22.81,22.81,0,0,0-11.5-19.83,37.29,37.29,0,0,0-73.69-1.22,22.82,22.82,0,1,0-10,43.84v0h74v-.08A22.8,22.8,0,0,0,217.59,64.32Z"/><path class="cls-8" d="M173.8,56.48h4.43a1.94,1.94,0,0,1,1.28,3.41l-11.18,9.7a2.16,2.16,0,0,1-2.9-.06l-10.21-9.7a1.94,1.94,0,0,1,1.34-3.35h3.94V42.09a3.58,3.58,0,0,1,3.57-3.58h6.16a3.58,3.58,0,0,1,3.57,3.58Z"/><line class="cls-8" x1="154.35" y1="15.29" x2="136.73" y2="23.34"/><path class="cls-1" d="M110,247.89l-5.24-3.78a8,8,0,0,1-3.18-8l5.77-30.88a8,8,0,0,1,5.29-6.1l7-2.4Z"/><rect class="cls-2" x="111.01" y="203.07" width="97.65" height="55.46" rx="8" transform="translate(45.16 -25.45) rotate(10.6)"/><path class="cls-8" d="M152.6,223.17l-2.34,12.51a2.31,2.31,0,0,0,2.9,2.65l14.66-4.14a2.31,2.31,0,0,0,.67-4.14l-12.32-8.37A2.31,2.31,0,0,0,152.6,223.17Z"/><path class="cls-8" d="M201.55,102.34l-4.51,2a7.05,7.05,0,0,0-3.88,4.52l-13.28,47.57a7,7,0,0,0,1,5.88l2.8,4.08Z"/><polygon class="cls-2" points="233.02 111.13 201.55 102.34 183.66 166.43 232.76 180.13 245.96 131.76 233.02 111.13"/><polygon class="cls-3" points="233.02 111.13 228.61 126.92 245.96 131.76 233.02 111.13"/><circle class="cls-2" cx="177.3" cy="104.23" r="4.03"/></svg>