<?xml version="1.0" encoding="UTF-8"?>
<svg width="195px" height="195px" viewBox="0 0 195 195" version="1.1" xmlns="http://www.w3.org/2000/svg" xmlns:xlink="http://www.w3.org/1999/xlink">
    <title>logo-dimedia-docusaurus</title>
    <defs>
        <linearGradient x1="50%" y1="0%" x2="50%" y2="99.6284965%" id="linearGradient-1">
            <stop stop-color="#0004FF" offset="0%"></stop>
            <stop stop-color="#BA00FE" offset="100%"></stop>
        </linearGradient>
    </defs>
    <g id="logo-dimedia-docusaurus" stroke="none" stroke-width="1" fill="none" fill-rule="evenodd">
        <path d="M128.723249,0.000425032088 C143.267,0.0398425597 157.706775,5.14692701 169.131223,14.126559 C184.012899,25.6532356 193.669742,43.7814361 194.579539,62.6113734 C194.722507,97.6202424 195.242391,132.642106 194.865475,167.650975 C194.410577,176.747564 194.70951,185.844152 194.644525,194.94074 L76.6828723,194.94074 L76.6828723,194.94074 C66.1292295,195.148662 55.3286419,194.99272 45.2818859,191.36708 C19.8205729,183.12817 0.688846141,158.177529 0,131.329599 L0,63.6249932 L0,63.6249932 C0.571872268,43.7424507 11.0605295,24.5096645 27.1379385,12.8660318 C38.3674303,4.5881366 52.3003183,-0.0511233211 66.2592005,0.000425032088 C87.0805499,0.0268474338 107.901899,0.013852308 128.723249,0.000425032088 Z M127.494621,45.7709773 C124.408521,41.1218291 118.163338,39.9529903 113.610645,43.0821238 C108.936316,46.2339703 107.779028,52.5044675 110.924209,57.0907186 C115.953023,64.5684917 119.463115,72.9111008 121.400616,81.8564744 C123.513621,91.7330752 123.513621,102.175751 121.400616,112.075064 C119.463115,121.022185 115.954761,129.364794 110.924209,136.790153 C107.780766,141.427071 108.938053,147.695821 113.55504,150.812725 C115.285758,152.030484 117.264963,152.608788 119.18335,152.608788 C122.413677,152.608788 125.544957,151.050336 127.494621,148.172791 C134.043896,138.573986 138.586163,127.806342 141.041489,116.296162 C143.74704,103.653834 143.74704,90.2462563 141.041489,77.6476062 C138.586163,66.0622992 134.043896,55.3697824 127.494621,45.7709773 Z M82.1298069,104.407313 C77.0330378,101.862915 70.8482538,103.97683 68.3289182,109.112874 L68.3289182,109.112874 L54.5773248,137.354989 C52.0562286,142.389537 54.1970477,148.580788 59.3255065,151.060439 C60.7814747,151.688664 62.3325122,152.078898 63.8448178,152.078898 C67.6317436,152.078898 71.3464872,149.964983 73.1123108,146.30238 L73.1123108,146.30238 L86.91496,118.137262 C89.4149296,113.002968 87.2881949,106.886964 82.1298069,104.407313 Z M86.2028588,57.816262 C81.3339753,52.7935397 72.3939846,52.7935397 67.486612,57.816262 C65.0268024,60.3276232 63.5869565,63.7013829 63.5869565,67.2144668 C63.5869565,70.7275506 65.0268024,74.203599 67.486612,76.6885062 C69.941173,79.148723 73.3632126,80.5437277 76.8412364,80.5437277 C80.3594989,80.5437277 83.7622938,79.148723 86.2046083,76.6885062 C88.6696664,74.203599 90.0832696,70.7275506 90.0815217,67.2144668 C90.0815217,63.7013829 88.6679169,60.3276232 86.2028588,57.816262 Z" id="carita-03" fill="url(#linearGradient-1)" fill-rule="nonzero"></path>
    </g>
</svg>