<svg width="300" height="300" viewBox="0 0 300 300" fill="none" xmlns="http://www.w3.org/2000/svg">
<path d="M35 82V72.3571L30.4974 77.4651C27.9213 80.3876 26.5 84.1495 26.5 88.0452V198.556C26.5 202.69 28.1008 206.665 30.9667 209.645L35 213.84V82Z" fill="#7658CE"/>
<path d="M35 72V82V213.84M39 218L30.9667 209.645C28.1008 206.665 26.5 202.69 26.5 198.556V88.0452C26.5 84.1495 27.9213 80.3876 30.4974 77.4651L38.4 68.5" stroke="#2E2252" stroke-width="3"/>
<path d="M261 238H50.5C41.6634 238 34.5 230.837 34.5 222V82V79C34.5 70.1634 41.6634 63 50.5 63H261C269.837 63 277 70.1634 277 79V82V222C277 230.837 269.837 238 261 238Z" fill="white" stroke="#2E2252" stroke-width="3"/>
<circle cx="60" cy="107" r="8" fill="#2E2252"/>
<path fill-rule="evenodd" clip-rule="evenodd" d="M76 106.5C76 105.672 76.6716 105 77.5 105H90.5C91.3284 105 92 105.672 92 106.5C92 107.328 91.3284 108 90.5 108H77.5C76.6716 108 76 107.328 76 106.5ZM100 106.5C100 105.672 100.672 105 101.5 105H114.5C115.328 105 116 105.672 116 106.5C116 107.328 115.328 108 114.5 108H101.5C100.672 108 100 107.328 100 106.5ZM125.5 105C124.672 105 124 105.672 124 106.5C124 107.328 124.672 108 125.5 108H138.5C139.328 108 140 107.328 140 106.5C140 105.672 139.328 105 138.5 105H125.5Z" fill="#2E2252"/>
<rect x="34.5" y="132.5" width="244" height="64" fill="#D7D2E8" stroke="#2E2252" stroke-width="3"/>
<path fill-rule="evenodd" clip-rule="evenodd" d="M98.5 210C97.6716 210 97 210.672 97 211.5C97 212.328 97.6716 213 98.5 213H215.5C216.328 213 217 212.328 217 211.5C217 210.672 216.328 210 215.5 210H98.5ZM98.5 222C97.6716 222 97 222.672 97 223.5C97 224.328 97.6716 225 98.5 225H215.5C216.328 225 217 224.328 217 223.5C217 222.672 216.328 222 215.5 222H98.5Z" fill="#2E2252"/>
<path d="M51 63H261C269.837 63 277 70.1634 277 79V83H35V79C35 70.1634 42.1634 63 51 63Z" fill="#F2F0FA" stroke="#2E2252" stroke-width="3"/>
<path fill-rule="evenodd" clip-rule="evenodd" d="M54 73C54 74.6569 52.6569 76 51 76C49.3431 76 48 74.6569 48 73C48 71.3431 49.3431 70 51 70C52.6569 70 54 71.3431 54 73ZM64 73C64 74.6569 62.6569 76 61 76C59.3431 76 58 74.6569 58 73C58 71.3431 59.3431 70 61 70C62.6569 70 64 71.3431 64 73ZM71 76C72.6569 76 74 74.6569 74 73C74 71.3431 72.6569 70 71 70C69.3431 70 68 71.3431 68 73C68 74.6569 69.3431 76 71 76Z" fill="#7658CE"/>
<circle cx="138" cy="47" r="3.5" fill="white" stroke="#2E2252" stroke-width="3" stroke-linecap="round" stroke-linejoin="round"/>
<circle cx="172" cy="13" r="3.5" fill="#7658CE" stroke="#2E2252" stroke-width="3" stroke-linecap="round" stroke-linejoin="round"/>
<circle cx="227" cy="31" r="2.5" fill="white" stroke="#2E2252" stroke-width="3" stroke-linecap="round" stroke-linejoin="round"/>
<circle cx="200" cy="276" r="2.5" fill="white" stroke="#2E2252" stroke-width="3" stroke-linecap="round" stroke-linejoin="round"/>
<path d="M68.3621 35.3703C68.3621 36.0621 68.0507 36.9199 67.343 37.8887C66.6449 38.8445 65.6372 39.8013 64.4532 40.6569C62.0343 42.4047 59.2113 43.5 57.3448 43.5C53.5306 43.5 50.5 40.49 50.5 36.8519C50.5 36.1131 50.8231 35.1088 51.5323 33.9352C52.2266 32.7861 53.2183 31.5959 54.3673 30.5172C55.5156 29.4393 56.7835 28.5079 58.005 27.854C59.2491 27.188 60.3315 26.8704 61.1379 26.8704C62.8412 26.8704 64.6373 27.9064 66.0731 29.6397C67.5026 31.3654 68.3621 33.5375 68.3621 35.3703Z" fill="#D7D2E8" stroke="#2E2252" stroke-width="3" stroke-linecap="round" stroke-linejoin="round"/>
<path d="M69.5 33.1481C69.5 36.7863 66.4694 39.7962 62.6551 39.7962C58.8409 39.7962 55.8103 36.7863 55.8103 33.1481C55.8103 29.51 58.8409 26.5 62.6551 26.5C66.4694 26.5 69.5 29.51 69.5 33.1481Z" fill="white" stroke="#2E2252" stroke-width="3" stroke-linecap="round" stroke-linejoin="round"/>
<circle cx="149" cy="274" r="4.5" fill="#8A6BE8" stroke="#2E2252" stroke-width="3" stroke-linecap="round" stroke-linejoin="round"/>
<circle cx="84" cy="254" r="6.5" fill="white" stroke="#2E2252" stroke-width="3" stroke-linecap="round" stroke-linejoin="round"/>
<path d="M282 257H191.5C182.663 257 175.5 249.837 175.5 241V116V113C175.5 104.163 182.663 97 191.5 97H282C290.837 97 298 104.163 298 113V116V241C298 249.837 290.837 257 282 257Z" fill="white" stroke="#2E2252" stroke-width="3"/>
<path d="M176 116V106.357L171.497 111.465C168.921 114.388 167.5 118.149 167.5 122.045V232.556C167.5 236.69 169.101 240.665 171.967 243.645L176 247.84V116Z" fill="#7658CE"/>
<path d="M176 106V116V247.84M180 252L171.967 243.645C169.101 240.665 167.5 236.69 167.5 232.556V122.045C167.5 118.149 168.921 114.388 171.497 111.465L179.4 102.5" stroke="#2E2252" stroke-width="3"/>
<path d="M202 110.5H252C257.799 110.5 262.5 115.201 262.5 121V129C262.5 134.799 257.799 139.5 252 139.5H192C191.724 139.5 191.5 139.276 191.5 139V121C191.5 115.201 196.201 110.5 202 110.5Z" fill="#F2F0FA" stroke="#2E2252" stroke-width="3"/>
<path d="M202 190.5H240C245.799 190.5 250.5 195.201 250.5 201V231C250.5 236.799 245.799 241.5 240 241.5H192C191.724 241.5 191.5 241.276 191.5 241V201C191.5 195.201 196.201 190.5 202 190.5Z" fill="#F2F0FA" stroke="#2E2252" stroke-width="3"/>
<path d="M202 121H244" stroke="#2E2252" stroke-width="3" stroke-linecap="round"/>
<path d="M202 129H234" stroke="#2E2252" stroke-width="3" stroke-linecap="round"/>
<path d="M283.768 89.4862C284.438 90.9077 284.656 92.5011 284.39 94.0503C284.216 95.149 283.803 96.1963 283.181 97.1187C282.559 98.0412 281.743 98.8165 280.79 99.3903L268.28 108.23L259.43 95.7203C258.706 94.8668 258.177 93.8648 257.882 92.785C257.586 91.7052 257.531 90.5737 257.72 89.4703C258.44 85.3003 263.19 82.9903 267.31 80.3903C269.3 79.1203 270.79 85.0203 271.89 86.9103C273.09 85.8945 274.573 85.2724 276.138 85.1282C277.703 84.9841 279.275 85.325 280.64 86.1046C282.005 86.8842 283.097 88.0648 283.768 89.4862Z" fill="#7658CE" stroke="#2E2252" stroke-width="3" stroke-linecap="round" stroke-linejoin="round"/>
<path d="M288.85 86.1494C289.521 87.5663 289.741 89.1548 289.48 90.7004C289.305 91.7965 288.894 92.8417 288.276 93.7636C287.658 94.6856 286.847 95.4624 285.9 96.0404L273.39 104.88L264.54 92.3704C263.852 91.5601 263.34 90.6155 263.037 89.5966C262.734 88.5777 262.646 87.5069 262.779 86.4522C262.912 85.3976 263.264 84.3823 263.811 83.4708C264.358 82.5593 265.088 81.7717 265.956 81.1579C266.824 80.5442 267.811 80.1179 268.852 79.9061C269.894 79.6942 270.968 79.7015 272.007 79.9275C273.046 80.1535 274.026 80.5932 274.886 81.2186C275.745 81.8441 276.465 82.6416 277 83.5604C277 83.5604 280 82 281.242 81.7964C282.484 81.5929 284.37 81.9986 285.73 82.777C287.091 83.5554 288.18 84.7325 288.85 86.1494Z" fill="white" stroke="#2E2252" stroke-width="3" stroke-linecap="round" stroke-linejoin="round"/>
<path d="M222 150.5H272C277.799 150.5 282.5 155.201 282.5 161V179C282.5 179.276 282.276 179.5 282 179.5H222C216.201 179.5 211.5 174.799 211.5 169V161C211.5 155.201 216.201 150.5 222 150.5Z" fill="#7658CE" stroke="#2E2252" stroke-width="3"/>
<path d="M226 161H268" stroke="#2E2252" stroke-width="3" stroke-linecap="round"/>
<path d="M226 169H268" stroke="#2E2252" stroke-width="3" stroke-linecap="round"/>
<circle cx="221" cy="216" r="13.5" fill="white" stroke="#2E2252" stroke-width="3"/>
<path d="M215 218C215 218.5 216.5 222 221 222C225.5 222 227 218.5 227 218" stroke="#2E2252" stroke-width="3" stroke-linecap="round"/>
<circle cx="217" cy="212" r="2" fill="#2E2252"/>
<circle cx="225" cy="212" r="2" fill="#2E2252"/>
<path d="M41 257.5C19.1848 257.5 1.5 239.815 1.5 218C1.5 211.594 3.02371 205.549 5.72714 200.202C12.7505 187.504 17.7015 182.275 22.6105 180.054C25.0608 178.946 27.6001 178.542 30.5764 178.429C32.3922 178.359 34.2707 178.398 36.3609 178.44C37.7921 178.469 39.3225 178.5 41 178.5C62.8152 178.5 80.5 196.185 80.5 218C80.5 220.908 80.7252 223.465 80.9203 225.68C81.0007 226.593 81.0759 227.447 81.1282 228.245C81.3113 231.035 81.2311 233.238 80.3565 235.433C79.4805 237.632 77.7384 239.988 74.2832 242.901C70.8284 245.813 65.7438 249.213 58.2943 253.523C53.0729 256.07 47.2056 257.5 41 257.5Z" fill="#7658CE" stroke="#2E2252" stroke-width="3"/>
<circle cx="49" cy="210" r="41.5" fill="white" stroke="#2E2252" stroke-width="3"/>
<path d="M61.5078 224H50.5078L35.5078 234V224C32.5078 224 27.5078 220.42 27.5078 216V198C27.5078 195.878 28.3507 193.843 29.851 192.343C31.3512 190.843 33.3861 190 35.5078 190H61.5078C63.6295 190 65.6644 190.843 67.1647 192.343C68.665 193.843 69.5078 195.878 69.5078 198V216C69.5078 218.122 68.665 220.157 67.1647 221.657C65.6644 223.157 63.6295 224 61.5078 224Z" fill="#F2F0FA" stroke="#2E2252" stroke-width="3" stroke-linecap="round" stroke-linejoin="round"/>
<path d="M39.5078 202H58.5078" stroke="#2E2252" stroke-width="3" stroke-linecap="round" stroke-linejoin="round"/>
<path d="M39.5078 211H52.5078" stroke="#2E2252" stroke-width="3" stroke-linecap="round" stroke-linejoin="round"/>
</svg>
